[center]
[img]http://www.filmofilia.com/wp-content/uploads/2011/04/immortals.jpg[/img]

PRESENTS

Immortals.CaM.XviD-THS

release date: 11.12.11



CODEC NFO



Complete name: Immortals.CaM.XviD-THS.avi

Format: AVI

Format/Info: Audio Video Interleave

File size: 943 MiB

Duration: 1h 41mn

Overall bit rate: 1 293 Kbps

Writing library: TMPGEnc 4.0 XPress Version. 4.7.6.304



Video

ID: 0

Format: MPEG-4 Visual

Format profile: Advanced Simple@L5

Format settings, BVOP: 1

Format settings, QPel: No

Format settings, GMC: No warppoints

Format settings, Matrix: Default (MPEG)

Muxing mode: Packed bitstream

Codec ID: XVID

Codec ID/Hint: XviD

Duration: 1h 41mn

Bit rate: 1 156 Kbps

Width: 720 pixels

Height: 372 pixels

Display aspect ratio: 1.935

Frame rate: 29.970 fps

Color space: YUV

Chroma subsampling: 4:2:0

Bit depth: 8 bits

Scan type: Progressive

Compression mode: Lossy

Bits/(Pixel*Frame): 0.144

Stream size: 843 MiB (89%)

Writing library: XviD 64



Audio

ID: 1

Format: MPEG Audio

Format version: Version 1

Format profile: Layer 3

Mode: Joint stereo

Codec ID: 55

Codec ID/Hint: MP3

Duration: 1h 41mn

Bit rate mode: Constant

Bit rate: 128 Kbps

Channel(s): 2 channels

Sampling rate: 48.0 KHz

Compression mode: Lossy

Stream size: 93.3 MiB (10%)

Alignment: Aligned on interleaves

Interleave, duration: 250 ms (7.49 video frames)

Interleave, preload duration: 432 ms

RIPPER NOTE'S: Ok here our cam russian video and enlish cam audio

not bad for first release could be a lot better if it wasnt in 3D did best i could

with lil cleanup didnt take long to sync audio (thx Mate 4 audio)




[img]http://i.imgur.com/LV6NG.jpg[/img]
[/center]